<svg width="238" height="35" viewBox="0 0 238 35" fill="none" xmlns="http://www.w3.org/2000/svg">
<path d="M56.116 28.28C54.716 28.28 53.4 28.028 52.168 27.524C50.9547 27.0013 49.8813 26.2733 48.948 25.34C48.0333 24.4067 47.3147 23.3333 46.792 22.12C46.288 20.888 46.036 19.5627 46.036 18.144C46.036 16.7067 46.2973 15.3813 46.82 14.168C47.3427 12.936 48.0707 11.8627 49.004 10.948C49.9373 10.0147 51.0293 9.296 52.28 8.792C53.5307 8.26933 54.884 8.008 56.34 8.008C57.964 8.008 59.4573 8.316 60.82 8.932C62.1827 9.52933 63.312 10.3787 64.208 11.48L61.632 14.056C61.016 13.2533 60.2507 12.6373 59.336 12.208C58.4213 11.7787 57.4133 11.564 56.312 11.564C55.0613 11.564 53.9507 11.844 52.98 12.404C52.028 12.9453 51.2813 13.7107 50.74 14.7C50.1987 15.6707 49.928 16.8093 49.928 18.116C49.928 19.4227 50.1893 20.58 50.712 21.588C51.2533 22.5773 51.9813 23.352 52.896 23.912C53.8293 24.472 54.8933 24.752 56.088 24.752C57.32 24.752 58.3747 24.528 59.252 24.08C60.1293 23.6133 60.8013 22.9413 61.268 22.064C61.7347 21.168 61.968 20.076 61.968 18.788L64.46 20.496L55.864 20.412V17.108H65.888V17.64C65.888 19.992 65.468 21.9613 64.628 23.548C63.788 25.116 62.6307 26.3013 61.156 27.104C59.7 27.888 58.02 28.28 56.116 28.28ZM71.609 20.692V17.584H76.173C76.7703 17.584 77.3116 17.4627 77.797 17.22C78.2823 16.9773 78.665 16.632 78.945 16.184C79.225 15.7173 79.365 15.1573 79.365 14.504C79.365 13.8693 79.225 13.3187 78.945 12.852C78.665 12.3853 78.2823 12.0307 77.797 11.788C77.3116 11.5453 76.7703 11.424 76.173 11.424H71.609V8.316H76.565C77.8156 8.316 78.9356 8.568 79.925 9.072C80.933 9.576 81.7263 10.2947 82.305 11.228C82.8836 12.1427 83.173 13.2347 83.173 14.504C83.173 15.7733 82.8836 16.8747 82.305 17.808C81.7263 18.7227 80.933 19.432 79.925 19.936C78.9356 20.44 77.8156 20.692 76.565 20.692H71.609ZM68.809 28V8.316H72.617V28H68.809ZM91.7749 28.28C90.1882 28.28 88.8255 28.0093 87.6869 27.468C86.5669 26.9267 85.5495 26.1147 84.6349 25.032L87.1549 22.512C87.7335 23.2773 88.4055 23.8747 89.1709 24.304C89.9362 24.7147 90.8695 24.92 91.9709 24.92C92.9602 24.92 93.7442 24.724 94.3229 24.332C94.9202 23.94 95.2189 23.3987 95.2189 22.708C95.2189 22.1107 95.0509 21.6253 94.7149 21.252C94.3789 20.8787 93.9309 20.5613 93.3709 20.3C92.8295 20.0387 92.2229 19.8053 91.5509 19.6C90.8975 19.376 90.2349 19.124 89.5629 18.844C88.9095 18.564 88.3029 18.2187 87.7429 17.808C87.2015 17.3787 86.7629 16.8373 86.4269 16.184C86.0909 15.512 85.9229 14.672 85.9229 13.664C85.9229 12.4693 86.2122 11.452 86.7909 10.612C87.3695 9.772 88.1629 9.128 89.1709 8.68C90.1789 8.232 91.3175 8.008 92.5869 8.008C93.9309 8.008 95.1442 8.26 96.2269 8.764C97.3095 9.268 98.1962 9.92133 98.8869 10.724L96.3669 13.244C95.7882 12.6093 95.1909 12.1427 94.5749 11.844C93.9775 11.5453 93.2962 11.396 92.5309 11.396C91.6535 11.396 90.9629 11.564 90.4589 11.9C89.9549 12.236 89.7029 12.7213 89.7029 13.356C89.7029 13.8973 89.8709 14.336 90.2069 14.672C90.5429 15.008 90.9815 15.2973 91.5229 15.54C92.0829 15.7827 92.6895 16.016 93.3429 16.24C94.0149 16.464 94.6775 16.716 95.3309 16.996C96.0029 17.276 96.6095 17.64 97.1509 18.088C97.7109 18.536 98.1589 19.1147 98.4949 19.824C98.8309 20.5147 98.9989 21.3733 98.9989 22.4C98.9989 24.2293 98.3549 25.6667 97.0669 26.712C95.7789 27.7573 94.0149 28.28 91.7749 28.28Z" fill="white"/>
<path d="M108.417 28V8.904H109.481L117.881 22.68H117.069L125.469 8.904H126.533V28H125.049V11.452L125.413 11.536L118.021 23.66H116.957L109.565 11.536L109.901 11.452V28H108.417ZM131.741 28V8.904H133.225V28H131.741ZM132.693 28V26.656H144.173V28H132.693ZM132.693 18.844V17.556H143.305V18.844H132.693ZM132.693 10.248V8.904H144.033V10.248H132.693ZM149.013 28V26.628H154.949C156.554 26.628 157.964 26.2827 159.177 25.592C160.409 24.8827 161.37 23.912 162.061 22.68C162.752 21.448 163.097 20.0293 163.097 18.424C163.097 16.8373 162.752 15.428 162.061 14.196C161.37 12.964 160.409 12.0027 159.177 11.312C157.945 10.6213 156.536 10.276 154.949 10.276H149.097V8.904H154.977C156.377 8.904 157.665 9.14666 158.841 9.632C160.017 10.0987 161.034 10.7613 161.893 11.62C162.77 12.46 163.442 13.468 163.909 14.644C164.394 15.8013 164.637 17.0707 164.637 18.452C164.637 19.8147 164.394 21.084 163.909 22.26C163.442 23.4173 162.78 24.4253 161.921 25.284C161.062 26.1427 160.045 26.8147 158.869 27.3C157.693 27.7667 156.414 28 155.033 28H149.013ZM148.229 28V8.904H149.713V28H148.229ZM168.928 28V8.904H170.412V28H168.928ZM184.279 28.28C182.917 28.28 181.647 28.028 180.471 27.524C179.314 27.02 178.297 26.32 177.419 25.424C176.561 24.528 175.889 23.4827 175.403 22.288C174.937 21.0933 174.703 19.8053 174.703 18.424C174.703 17.0427 174.937 15.764 175.403 14.588C175.87 13.3933 176.533 12.3573 177.391 11.48C178.269 10.584 179.277 9.884 180.415 9.38C181.573 8.876 182.833 8.624 184.195 8.624C185.614 8.624 186.902 8.88533 188.059 9.408C189.235 9.93066 190.262 10.6493 191.139 11.564L190.103 12.6C189.394 11.7973 188.535 11.172 187.527 10.724C186.519 10.276 185.409 10.052 184.195 10.052C183.057 10.052 182.002 10.2667 181.031 10.696C180.061 11.1067 179.211 11.6947 178.483 12.46C177.774 13.2067 177.223 14.0933 176.831 15.12C176.439 16.128 176.243 17.2293 176.243 18.424C176.243 19.6187 176.439 20.7293 176.831 21.756C177.242 22.7827 177.802 23.6787 178.511 24.444C179.221 25.2093 180.061 25.8067 181.031 26.236C182.021 26.6467 183.085 26.852 184.223 26.852C185.474 26.852 186.613 26.628 187.639 26.18C188.666 25.7133 189.534 25.0787 190.243 24.276L191.279 25.284C190.421 26.2173 189.394 26.9547 188.199 27.496C187.023 28.0187 185.717 28.28 184.279 28.28ZM195.178 28V8.904H196.662V28H195.178ZM201.877 28V8.904H202.941L203.361 10.696V28H201.877ZM215.093 28L202.717 10.864L202.941 8.904L215.345 26.012L215.093 28ZM215.093 28L214.673 26.264V8.904H216.157V28H215.093ZM220.002 28L227.786 8.904H228.962L236.718 28H235.094L228.066 10.416H228.654L221.57 28H220.002ZM223.39 22.372V21.056H233.33V22.372H223.39Z" fill="#1EC8AB"/>
<path d="M14.0195 17.6514C14.014 17.5508 13.9939 17.4509 13.96 17.3545L11.1396 9.3457C10.8093 8.40734 11.8262 7.56508 12.6865 8.06445L18.1025 11.209C16.7415 13.3564 15.3806 15.5039 14.0195 17.6514ZM27.6895 16.7773C28.4038 17.1924 28.3982 18.2261 27.6797 18.6338L12.6904 27.1318C11.8262 27.6213 10.8191 26.7713 11.1563 25.8369L11.3301 25.3564C13.9013 20.823 16.4718 16.2893 19.043 11.7559L27.6895 16.7773Z" fill="url(#paint0_linear_381_116)"/>
<circle cx="17.5" cy="17.5" r="16.8895" stroke="#1EC8AB" stroke-width="1.22093"/>
<defs>
<linearGradient id="paint0_linear_381_116" x1="10.4179" y1="6.60547" x2="29.8777" y2="16.5481" gradientUnits="userSpaceOnUse">
<stop stop-color="#0D93AF"/>
<stop offset="1" stop-color="#1EC8AB"/>
</linearGradient>
</defs>
</svg>
