<svg width="3311" height="7890" viewBox="0 0 3311 7890" fill="none" xmlns="http://www.w3.org/2000/svg">
<g style="mix-blend-mode:overlay" opacity="0.16">
<g style="mix-blend-mode:overlay">
<path opacity="0.4" d="M3185.12 1592.02L1244.2 516.146C1174.27 477.383 1086.15 502.649 1047.39 572.579L1025.55 611.98C986.789 681.91 1012.05 770.022 1081.98 808.785L3022.91 1884.66C3092.84 1923.42 3180.95 1898.15 3219.71 1828.22L3241.55 1788.82C3280.31 1718.89 3255.05 1630.78 3185.12 1592.02Z" fill="white" fill-opacity="0.12"/>
<path d="M1683.48 666.774L1116.36 352.419C1078.47 331.416 1030.73 345.104 1009.73 382.991C988.731 420.878 1002.42 468.618 1040.31 489.62L1607.42 803.976C1645.31 824.978 1693.05 811.29 1714.05 773.403C1735.06 735.516 1721.36 687.777 1683.48 666.774Z" fill="white" fill-opacity="0.12"/>
<path opacity="0.4" d="M2955.25 695.988L1826.28 70.1859C1756.35 31.4233 1668.23 56.6891 1629.47 126.619L1556.91 257.532C1518.14 327.461 1543.41 415.574 1613.34 454.336L2742.32 1080.14C2812.25 1118.9 2900.36 1093.64 2939.12 1023.71L3011.69 892.792C3050.45 822.863 3025.18 734.75 2955.25 695.988Z" fill="white" fill-opacity="0.12"/>
<path opacity="0.6" d="M2432.25 1454.77L699.843 494.478C630.28 455.918 542.63 481.052 504.071 550.614L504.066 550.623C465.507 620.185 490.641 707.835 560.203 746.394L2292.61 1706.69C2362.18 1745.24 2449.83 1720.11 2488.39 1650.55L2488.39 1650.54C2526.95 1580.98 2501.82 1493.33 2432.25 1454.77Z" fill="white" fill-opacity="0.12"/>
<path d="M2661.39 1977.12L494.904 776.221C433.765 742.332 356.73 764.421 322.841 825.56C288.951 886.698 311.041 963.733 372.179 997.622L2538.66 2198.52C2599.8 2232.41 2676.84 2210.32 2710.73 2149.19C2744.62 2088.05 2722.53 2011.01 2661.39 1977.12Z" fill="white" fill-opacity="0.12"/>
<path opacity="0.6" d="M2928.58 2369.82L729.097 1150.63C659.168 1111.86 571.055 1137.13 532.293 1207.06L378.826 1483.92C340.064 1553.85 365.329 1641.96 435.259 1680.72L2634.74 2899.92C2704.67 2938.68 2792.79 2913.42 2831.55 2843.49L2985.02 2566.62C3023.78 2496.7 2998.51 2408.58 2928.58 2369.82Z" fill="white" fill-opacity="0.12"/>
</g>
<g style="mix-blend-mode:overlay">
<path opacity="0.4" d="M3185.18 3200.02L1244.26 2124.15C1174.33 2085.38 1086.21 2110.65 1047.45 2180.58L1025.61 2219.98C986.848 2289.91 1012.11 2378.02 1082.04 2416.79L3022.96 3492.66C3092.89 3531.42 3181.01 3506.15 3219.77 3436.22L3241.61 3396.82C3280.37 3326.89 3255.11 3238.78 3185.18 3200.02Z" fill="white" fill-opacity="0.12"/>
<path opacity="0.4" d="M2956.16 2302.47L707.326 1055.93C637.396 1017.16 549.284 1042.43 510.521 1112.36L437.955 1243.27C399.192 1313.2 424.458 1401.31 494.388 1440.08L2743.22 2686.62C2813.15 2725.39 2901.26 2700.12 2940.02 2630.19L3012.59 2499.28C3051.35 2429.35 3026.09 2341.24 2956.16 2302.47Z" fill="white" fill-opacity="0.12"/>
<path opacity="0.6" d="M2432.32 3062.77L699.911 2102.48C630.349 2063.92 542.699 2089.05 504.14 2158.61L504.135 2158.62C465.576 2228.19 490.709 2315.84 560.271 2354.39L2292.68 3314.69C2362.25 3353.24 2449.9 3328.11 2488.45 3258.55L2488.46 3258.54C2527.02 3188.98 2501.89 3101.33 2432.32 3062.77Z" fill="white" fill-opacity="0.12"/>
<path opacity="0.6" d="M2817.33 3671.99L753.548 2528.02C692.41 2494.13 615.375 2516.22 581.485 2577.36C547.596 2638.5 569.685 2715.53 630.824 2749.42L2694.6 3893.4C2755.74 3927.28 2832.78 3905.2 2866.67 3844.06C2900.55 3782.92 2878.47 3705.88 2817.33 3671.99Z" fill="white" fill-opacity="0.12"/>
<path opacity="0.6" d="M2928.88 3977.4L420.486 2586.98C350.556 2548.21 262.444 2573.48 223.681 2643.41L70.2148 2920.27C31.4522 2990.2 56.718 3078.31 126.648 3117.07L2635.04 4507.5C2704.97 4546.26 2793.08 4521 2831.84 4451.07L2985.31 4174.2C3024.07 4104.28 2998.81 4016.16 2928.88 3977.4Z" fill="white" fill-opacity="0.12"/>
</g>
<g style="mix-blend-mode:overlay">
<path opacity="0.4" d="M3185.15 4816.02L1244.23 3740.15C1174.3 3701.38 1086.18 3726.65 1047.42 3796.58L1025.58 3835.98C986.818 3905.91 1012.08 3994.02 1082.01 4032.79L3022.94 5108.66C3092.86 5147.42 3180.98 5122.15 3219.74 5052.22L3241.58 5012.82C3280.34 4942.89 3255.08 4854.78 3185.15 4816.02Z" fill="white" fill-opacity="0.12"/>
<path opacity="0.4" d="M2955.28 3919.99L1826.31 3294.19C1756.38 3255.42 1668.26 3280.69 1629.5 3350.62L1556.94 3481.53C1518.17 3551.46 1543.44 3639.57 1613.37 3678.34L2742.34 4304.14C2812.27 4342.9 2900.39 4317.64 2939.15 4247.71L3011.72 4116.79C3050.48 4046.86 3025.21 3958.75 2955.28 3919.99Z" fill="white" fill-opacity="0.12"/>
<path opacity="0.6" d="M2432.28 4678.77L699.872 3718.48C630.31 3679.92 542.66 3705.05 504.101 3774.61L504.096 3774.62C465.537 3844.19 490.67 3931.84 560.232 3970.39L2292.64 4930.69C2362.21 4969.25 2449.86 4944.11 2488.42 4874.55L2488.42 4874.54C2526.98 4804.98 2501.85 4717.33 2432.28 4678.77Z" fill="white" fill-opacity="0.12"/>
<path d="M2661.42 5201.13L494.939 4000.22C433.801 3966.33 356.765 3988.42 322.876 4049.56C288.986 4110.7 311.076 4187.73 372.214 4221.62L2538.7 5422.53C2599.84 5456.42 2676.87 5434.33 2710.76 5373.19C2744.65 5312.05 2722.56 5235.01 2661.42 5201.13Z" fill="white" fill-opacity="0.12"/>
<path opacity="0.6" d="M2928.85 5617.4L420.457 4226.98C350.527 4188.21 262.415 4213.48 223.652 4283.41L70.1856 4560.27C31.423 4630.2 56.6889 4718.31 126.618 4757.07L2635.01 6147.5C2704.94 6186.26 2793.05 6161 2831.81 6091.07L2985.28 5814.21C3024.04 5744.28 2998.78 5656.16 2928.85 5617.4Z" fill="white" fill-opacity="0.12"/>
<path d="M1683.74 3890.28L752.484 3374.08C714.594 3353.08 666.854 3366.76 645.853 3404.65C624.852 3442.54 638.542 3490.28 676.432 3511.28L1607.69 4027.49C1645.58 4048.49 1693.32 4034.8 1714.32 3996.91C1735.32 3959.03 1721.63 3911.29 1683.74 3890.28Z" fill="white" fill-opacity="0.12"/>
</g>
<g style="mix-blend-mode:overlay">
<path opacity="0.4" d="M696.149 5131.6L2940 6379.35L2777.39 6671.77L533.539 5424.02L696.149 5131.6Z" fill="white" fill-opacity="0.12"/>
<path opacity="0.4" d="M2925.89 5597.79L754.566 4394.21C684.636 4355.44 596.524 4380.71 557.761 4450.64L485.195 4581.55C446.433 4651.48 471.698 4739.59 541.628 4778.36L2712.95 5981.94C2782.88 6020.7 2870.99 5995.44 2909.75 5925.51L2982.32 5794.59C3021.08 5724.66 2995.82 5636.55 2925.89 5597.79Z" fill="white" fill-opacity="0.12"/>
<path opacity="0.6" d="M2432.31 6374.77L699.901 5414.48C630.339 5375.92 542.689 5401.05 504.13 5470.61L504.125 5470.62C465.566 5540.18 490.699 5627.83 560.261 5666.39L2292.67 6626.69C2362.24 6665.24 2449.89 6640.11 2488.44 6570.55L2488.45 6570.54C2527.01 6500.98 2501.88 6413.33 2432.31 6374.77Z" fill="white" fill-opacity="0.12"/>
<path d="M2661.45 6897.12L494.968 5696.22C433.83 5662.33 356.795 5684.42 322.905 5745.56C289.016 5806.7 311.105 5883.73 372.243 5917.62L2538.73 7118.53C2599.87 7152.42 2676.9 7130.33 2710.79 7069.19C2744.68 7008.05 2722.59 6931.01 2661.45 6897.12Z" fill="white" fill-opacity="0.12"/>
<path opacity="0.6" d="M2928.87 7289.4L420.476 5898.98C350.547 5860.21 262.434 5885.48 223.672 5955.41L70.2051 6232.27C31.4425 6302.2 56.7084 6390.31 126.638 6429.07L2635.03 7819.5C2704.96 7858.26 2793.07 7833 2831.83 7763.07L2985.3 7486.2C3024.06 7416.28 2998.8 7328.16 2928.87 7289.4Z" fill="white" fill-opacity="0.12"/>
</g>
</g>
</svg>
