<svg width="147" height="35" viewBox="0 0 147 35" fill="none" xmlns="http://www.w3.org/2000/svg">
<path d="M56.116 28.28C54.716 28.28 53.4 28.028 52.168 27.524C50.9547 27.0013 49.8813 26.2733 48.948 25.34C48.0333 24.4067 47.3147 23.3333 46.792 22.12C46.288 20.888 46.036 19.5627 46.036 18.144C46.036 16.7067 46.2973 15.3813 46.82 14.168C47.3427 12.936 48.0707 11.8627 49.004 10.948C49.9373 10.0147 51.0293 9.296 52.28 8.792C53.5307 8.26933 54.884 8.008 56.34 8.008C57.964 8.008 59.4573 8.316 60.82 8.932C62.1827 9.52933 63.312 10.3787 64.208 11.48L61.632 14.056C61.016 13.2533 60.2507 12.6373 59.336 12.208C58.4213 11.7787 57.4133 11.564 56.312 11.564C55.0613 11.564 53.9507 11.844 52.98 12.404C52.028 12.9453 51.2813 13.7107 50.74 14.7C50.1987 15.6707 49.928 16.8093 49.928 18.116C49.928 19.4227 50.1893 20.58 50.712 21.588C51.2533 22.5773 51.9813 23.352 52.896 23.912C53.8293 24.472 54.8933 24.752 56.088 24.752C57.32 24.752 58.3747 24.528 59.252 24.08C60.1293 23.6133 60.8013 22.9413 61.268 22.064C61.7347 21.168 61.968 20.076 61.968 18.788L64.46 20.496L55.864 20.412V17.108H65.888V17.64C65.888 19.992 65.468 21.9613 64.628 23.548C63.788 25.116 62.6307 26.3013 61.156 27.104C59.7 27.888 58.02 28.28 56.116 28.28ZM71.609 20.692V17.584H76.173C76.7703 17.584 77.3116 17.4627 77.797 17.22C78.2823 16.9773 78.665 16.632 78.945 16.184C79.225 15.7173 79.365 15.1573 79.365 14.504C79.365 13.8693 79.225 13.3187 78.945 12.852C78.665 12.3853 78.2823 12.0307 77.797 11.788C77.3116 11.5453 76.7703 11.424 76.173 11.424H71.609V8.316H76.565C77.8156 8.316 78.9356 8.568 79.925 9.072C80.933 9.576 81.7263 10.2947 82.305 11.228C82.8836 12.1427 83.173 13.2347 83.173 14.504C83.173 15.7733 82.8836 16.8747 82.305 17.808C81.7263 18.7227 80.933 19.432 79.925 19.936C78.9356 20.44 77.8156 20.692 76.565 20.692H71.609ZM68.809 28V8.316H72.617V28H68.809ZM91.7749 28.28C90.1882 28.28 88.8255 28.0093 87.6869 27.468C86.5669 26.9267 85.5495 26.1147 84.6349 25.032L87.1549 22.512C87.7335 23.2773 88.4055 23.8747 89.1709 24.304C89.9362 24.7147 90.8695 24.92 91.9709 24.92C92.9602 24.92 93.7442 24.724 94.3229 24.332C94.9202 23.94 95.2189 23.3987 95.2189 22.708C95.2189 22.1107 95.0509 21.6253 94.7149 21.252C94.3789 20.8787 93.9309 20.5613 93.3709 20.3C92.8295 20.0387 92.2229 19.8053 91.5509 19.6C90.8975 19.376 90.2349 19.124 89.5629 18.844C88.9095 18.564 88.3029 18.2187 87.7429 17.808C87.2015 17.3787 86.7629 16.8373 86.4269 16.184C86.0909 15.512 85.9229 14.672 85.9229 13.664C85.9229 12.4693 86.2122 11.452 86.7909 10.612C87.3695 9.772 88.1629 9.128 89.1709 8.68C90.1789 8.232 91.3175 8.008 92.5869 8.008C93.9309 8.008 95.1442 8.26 96.2269 8.764C97.3095 9.268 98.1962 9.92133 98.8869 10.724L96.3669 13.244C95.7882 12.6093 95.1909 12.1427 94.5749 11.844C93.9775 11.5453 93.2962 11.396 92.5309 11.396C91.6535 11.396 90.9629 11.564 90.4589 11.9C89.9549 12.236 89.7029 12.7213 89.7029 13.356C89.7029 13.8973 89.8709 14.336 90.2069 14.672C90.5429 15.008 90.9815 15.2973 91.5229 15.54C92.0829 15.7827 92.6895 16.016 93.3429 16.24C94.0149 16.464 94.6775 16.716 95.3309 16.996C96.0029 17.276 96.6095 17.64 97.1509 18.088C97.7109 18.536 98.1589 19.1147 98.4949 19.824C98.8309 20.5147 98.9989 21.3733 98.9989 22.4C98.9989 24.2293 98.3549 25.6667 97.0669 26.712C95.7789 27.7573 94.0149 28.28 91.7749 28.28Z" fill="white"/>
<path d="M108.417 28V8.904H109.901V28H108.417ZM120.716 28V9.436H122.172V28H120.716ZM113.716 10.248V8.904H129.172V10.248H113.716ZM128.482 28L136.266 8.904H137.442L145.198 28H143.574L136.546 10.416H137.134L130.05 28H128.482ZM131.87 22.372V21.056H141.81V22.372H131.87Z" fill="#07BBDF"/>
<path d="M13.8262 17.2866C13.8211 17.1898 13.8051 17.0933 13.7725 17.0005L11.0771 9.3501C10.7614 8.45358 11.7337 7.64912 12.5557 8.12647L17.7285 11.1294C16.4277 13.1818 15.127 15.2342 13.8262 17.2866ZM26.8867 16.4497C27.5691 16.8463 27.5636 17.8338 26.877 18.2231L12.5596 26.3403C11.734 26.8084 10.7718 25.9967 11.0938 25.104L11.2617 24.6382C13.7168 20.3095 16.1718 15.9806 18.627 11.6519L26.8867 16.4497Z" fill="url(#paint0_linear_381_115)"/>
<circle cx="17.5" cy="17.5" r="16.8895" stroke="#07BBDF" stroke-width="1.22093"/>
<defs>
<linearGradient id="paint0_linear_381_115" x1="28.4275" y1="17.3067" x2="9.83832" y2="7.80883" gradientUnits="userSpaceOnUse">
<stop stop-color="#0D93AF"/>
<stop offset="1" stop-color="#1EC8AB"/>
</linearGradient>
</defs>
</svg>
